<svg fill="none" xmlns="http://www.w3.org/2000/svg" viewBox="0 0 48 48"><g clip-path="url(#clip0)"><path d="M0 23C0 12.158 0 6.737 3.368 3.368 6.737 0 12.158 0 23 0h2c10.842 0 16.264 0 19.632 3.368C48 6.737 48 12.158 48 23v2c0 10.842 0 16.264-3.368 19.632C41.264 48 35.842 48 25 48h-2c-10.842 0-16.263 0-19.632-3.368C0 41.264 0 35.842 0 25v-2z" fill="#FFCB21"/><path d="M10.19 15.977c0-.032-.021-.063-.02-.094l8.493 8.183-8.482 7.922c-.005-.057.01-.114.01-.172V15.977zM19.96 25.326l3.466 3.336a.905.905 0 001.248.01l3.457-3.222 8.538 8.23c-.208.074-.43.132-.664.132h-23.9c-.346 0-.671-.105-.954-.263l8.808-8.223z" fill="#fff"/><path d="M24.064 26.76L11.103 14.273a1.965 1.965 0 011.001-.292h23.9c.477 0 .914.186 1.254.468L24.064 26.76zM38 16.283v15.535c0 .179-.041.35-.086.515l-8.431-8.12L38 16.283z" fill="#fff"/></g><defs><clipPath id="clip0"><path fill="#fff" d="M0 0h48v48H0z"/></clipPath></defs></svg>