<svg fill="none" xmlns="http://www.w3.org/2000/svg" viewBox="0 0 49 48"><path d="M24 0c-6.518 0-7.336.028-9.896.145C11.55.26 9.806.667 8.28 1.26 6.7 1.874 5.362 2.694 4.028 4.03 2.694 5.363 1.873 6.7 1.26 8.279.667 9.806.261 11.55.145 14.104.028 16.665 0 17.483 0 24c0 6.518.028 7.336.145 9.895.116 2.555.522 4.299 1.115 5.826.614 1.579 1.434 2.916 2.769 4.251 1.335 1.335 2.672 2.155 4.25 2.768 1.527.594 3.272 1 5.826 1.116 2.56.117 3.378.145 9.896.145 6.518 0 7.336-.028 9.896-.145 2.554-.116 4.299-.522 5.825-1.116 1.579-.613 2.916-1.433 4.251-2.768 1.335-1.335 2.155-2.672 2.769-4.25.593-1.527.999-3.272 1.115-5.827.117-2.56.145-3.377.145-9.895s-.028-7.336-.145-9.896c-.116-2.554-.522-4.299-1.115-5.825-.614-1.579-1.434-2.916-2.769-4.251-1.335-1.335-2.672-2.155-4.25-2.769C38.193.667 36.45.261 33.894.145 31.335.028 30.518 0 24 0z" fill="#FFCB21"/><path d="M24 32a8 8 0 110-16 8 8 0 010 16zm0-20.324c-6.807 0-12.324 5.518-12.324 12.324 0 6.807 5.518 12.324 12.324 12.324 6.807 0 12.324-5.518 12.324-12.324 0-6.807-5.517-12.324-12.324-12.324zM39.692 11.189a2.88 2.88 0 11-5.76 0 2.88 2.88 0 015.76 0z" fill="#fff"/></svg>