<svg fill="none" xmlns="http://www.w3.org/2000/svg" viewBox="0 0 120 120"><g clip-path="url(#clip0)" fill-rule="evenodd" clip-rule="evenodd" fill="#F6D857"><path d="M49.05 58.946l13.47-10.559-9.785-18.436v-7.685H69.14a3.516 3.516 0 003.516-3.516V3.516A3.516 3.516 0 0069.14 0H49.219a3.515 3.515 0 00-3.516 3.516V29.95L35.206 49.727l13.845 9.22z"/><path d="M65.87 54.697L51.387 66.048c-1.147.898-2.87.99-4.117.16l-15.378-10.24-31.189 58.76A3.516 3.516 0 003.75 120l90.938-.001a3.515 3.515 0 003.104-5.163L65.868 54.697zM119.823 114.863L94.968 67.309l-10.443 7.543s21.188 40.232 22.322 42.974a3.452 3.452 0 003.248 2.173h6.624v-.014a3.502 3.502 0 003.104-5.122zM81.197 68.583l10.48-7.57-6.994-13.384a3.502 3.502 0 00-6.224-.031l-3.31 6.334a3.424 3.424 0 00.01 3.276l6.038 11.375z"/></g><defs><clipPath id="clip0"><path fill="#fff" d="M0 0h120v120H0z"/></clipPath></defs></svg>