<svg fill="none" xmlns="http://www.w3.org/2000/svg" viewBox="0 0 121 121"><path d="M29.977 73.828V50.713c0-1.668.239-3.295.687-4.848H15.077a9.14 9.14 0 00-6.48 2.688 9.142 9.142 0 00-2.689 6.48v18.393c0 2.239.817 4.3 2.17 5.904a9.21 9.21 0 002.513 2.082v26.734a3.538 3.538 0 003.538 3.538h21.733V86.971c-3.716-3.355-5.885-8.134-5.885-13.143zM25.015 41.68c7.642 0 13.86-6.218 13.86-13.86 0-7.644-6.218-13.861-13.86-13.861-7.643 0-13.86 6.217-13.86 13.86s6.217 13.86 13.86 13.86zM72.657 40.098h-24.99a10.586 10.586 0 00-7.501 3.113 10.583 10.583 0 00-3.113 7.501v23.115c0 2.592.945 4.98 2.51 6.834a10.668 10.668 0 003.375 2.659v34.142A3.538 3.538 0 0046.476 121h27.372a3.538 3.538 0 003.538-3.538V83.32a10.656 10.656 0 003.374-2.659 10.569 10.569 0 002.511-6.834V50.712c0-2.925-1.19-5.58-3.112-7.5a10.583 10.583 0 00-7.502-3.114zM60.156 33.021c9.104 0 16.51-7.406 16.51-16.51C76.667 7.406 69.26 0 60.157 0c-9.104 0-16.51 7.406-16.51 16.51 0 9.105 7.406 16.511 16.51 16.511zM112.201 48.553a9.14 9.14 0 00-6.48-2.688h-16.06a17.51 17.51 0 01.686 4.848v23.115c0 5.008-2.17 9.788-5.885 13.143v24.688c.14.016.282.025.427.025h21.779a3.538 3.538 0 003.539-3.538V81.412a9.235 9.235 0 002.513-2.082 9.134 9.134 0 002.17-5.904V55.033a9.141 9.141 0 00-2.689-6.48zM95.774 41.68c7.643 0 13.861-6.218 13.861-13.86 0-7.644-6.218-13.861-13.86-13.861-7.643 0-13.86 6.217-13.86 13.86s6.217 13.86 13.86 13.86z" fill="#F6D857"/></svg>