<svg fill="none" xmlns="http://www.w3.org/2000/svg" viewBox="0 0 85 119"><path fill-rule="evenodd" clip-rule="evenodd" d="M.432 115.514A3.486 3.486 0 003.918 119H80.85a3.486 3.486 0 003.486-3.486v-10.459H.432v10.459zM80.85 19.988H3.918a3.493 3.493 0 00-3.486 3.487v74.607h83.904V23.475a3.493 3.493 0 00-3.486-3.487zM28.812 81.837l-6.857 6.856a3.482 3.482 0 01-4.93 0l-2.789-2.789a3.485 3.485 0 114.93-4.93l.324.324 4.392-4.392a3.487 3.487 0 014.93 4.931zm0-20.686l-6.857 6.857a3.482 3.482 0 01-4.93 0l-2.789-2.79a3.485 3.485 0 114.93-4.929l.324.323 4.392-4.391a3.487 3.487 0 014.93 4.93zm0-20.801l-6.857 6.856a3.474 3.474 0 01-2.465 1.021c-.892 0-1.785-.34-2.465-1.02l-2.789-2.79a3.485 3.485 0 114.93-4.93l.324.323 4.392-4.39a3.485 3.485 0 114.93 4.93zm38.092 46.11H40.233a3.487 3.487 0 010-6.972h26.671a3.486 3.486 0 110 6.973zm0-20.685H40.233a3.487 3.487 0 010-6.972h26.671a3.486 3.486 0 110 6.972zm0-20.801H40.233a3.487 3.487 0 010-6.973h26.671a3.486 3.486 0 110 6.973zM30.646 3.486A3.486 3.486 0 0027.16 0H10.89a3.486 3.486 0 00-3.486 3.486v9.53h23.242v-9.53zM77.363 3.486A3.486 3.486 0 0073.877 0h-16.27a3.486 3.486 0 00-3.486 3.486v9.53h23.242v-9.53z" fill="#F6D857"/></svg>